<?xml version="1.0" encoding="UTF-8" standalone="yes"?>
<svg xmlns="http://www.w3.org/2000/svg" xmlns:xlink="http://www.w3.org/1999/xlink" width="15.75" height="15.75" viewBox="0 0 15.75 15.75" version="1.1">
  <g id="surface1">
    <path style="fill:none;stroke-width:8.786592;stroke-linecap:butt;stroke-linejoin:miter;stroke:#ffffff;stroke-opacity:1;stroke-miterlimit:10;" d="M 125.00644 75.006039 C 125.00644 102.607508 102.616175 124.991462 74.987945 124.991462 C 47.386855 124.991462 24.99659 102.607508 24.99659 75.006039 C 24.99659 47.377535 47.386855 24.993582 74.987945 24.993582 C 102.616175 24.993582 125.00644 47.377535 125.00644 75.006039 Z M 125.00644 75.006039 " transform="matrix(0.143931,0,0,0.144495,-2.929819,-2.923954)"/>
    <path style="fill:none;stroke-width:8.786592;stroke-linecap:butt;stroke-linejoin:miter;stroke:#ffffff;stroke-opacity:1;stroke-miterlimit:10;" d="M 36.992344 75.384511 C 36.992344 75.384511 43.370177 59.758998 59.138351 59.758998 C 74.879386 59.758998 68.637251 90.496383 90.620421 90.496383 C 112.630729 90.496383 112.006516 75.384511 112.006516 75.384511 " transform="matrix(0.143931,0,0,0.144495,-2.929819,-2.923954)"/>
    <path style=" stroke:none;fill-rule:nonzero;fill:#ffffff;fill-opacity:1;" d="M 9.097656 9.089844 C 4.289062 3.339844 6.691406 6.214844 9.097656 9.089844 Z M 8.648438 14.554688 L 8.351562 13.585938 L 6.867188 13.585938 L 6.566406 14.554688 L 5.636719 14.554688 L 7.089844 10.425781 L 8.167969 10.425781 L 9.617188 14.554688 Z M 8.167969 12.84375 L 7.609375 11.058594 L 7.089844 12.84375 Z M 8.167969 12.84375 "/>
  </g>
</svg>