<?xml version="1.0" encoding="utf-8"?>
<!-- Generator: Adobe Illustrator 24.1.1, SVG Export Plug-In . SVG Version: 6.00 Build 0)  -->
<svg version="1.1" id="Layer_1" xmlns="http://www.w3.org/2000/svg" xmlns:xlink="http://www.w3.org/1999/xlink" x="0px" y="0px"
	 viewBox="0 0 128 128" style="enable-background:new 0 0 128 128;" xml:space="preserve">
<style type="text/css">
	.st0{fill:#E5A50A;}
	.st1{fill:#F6D32D;}
</style>
<path class="st0" d="M96,61.5c0,0.2,0,0.3,0,0.4c-0.1,0.8-0.5,1.7-1.1,2.3l-6.2,5.9l-0.2,0.2L47,113c-1.2,1.3-3,0.4-3.2-1
	c0,0,0,0,0-0.1v-3.4H45l17.1-38.4H35c-1.6,0-2.8-1.2-3-2.7c0-0.2,0-0.3,0-0.5v-2.8h1l21.1-45.4c0.6-1.1,1.6-1.8,2.8-1.8h26.3
	c0.1,0,0.1,0,0.2,0l0,0h2.9v3.2c0,0.1,0,0.2,0,0.3c0,0.3-0.1,0.6-0.3,0.9L69.2,57.6h23.1c1.3,0,2.4,0.6,3,1.6l0.7,0.1
	C96,59.3,96,61.5,96,61.5z"/>
<path class="st1" d="M94.9,61.4l-6.2,5.9l-0.2,0.2L47,110.3c-1.5,1.6-4-0.2-3.1-2.1L62,67.4H35c-2.2,0-3.7-2.3-2.8-4.3l21.9-47
	c0.6-1.1,1.6-1.8,2.8-1.8h26.3c2.2,0,3.7,2.3,2.8,4.3L69.2,54.8h23.1C95.6,54.8,97.3,59,94.9,61.4z"/>
</svg>
