<?xml version="1.0" encoding="UTF-8" standalone="no"?>
<svg
   width="15"
   height="15"
   viewBox="0 0 15 15"
   version="1.1"
   id="svg23"
   sodipodi:docname="Led.svg"
   inkscape:version="1.1.2 (0a00cf5339, 2022-02-04)"
   xmlns:inkscape="http://www.inkscape.org/namespaces/inkscape"
   xmlns:sodipodi="http://sodipodi.sourceforge.net/DTD/sodipodi-0.dtd"
   xmlns="http://www.w3.org/2000/svg"
   xmlns:svg="http://www.w3.org/2000/svg">
  <defs
     id="defs27" />
  <sodipodi:namedview
     id="namedview25"
     pagecolor="#505050"
     bordercolor="#eeeeee"
     borderopacity="1"
     inkscape:pageshadow="0"
     inkscape:pageopacity="0"
     inkscape:pagecheckerboard="0"
     showgrid="false"
     inkscape:zoom="47.928244"
     inkscape:cx="5.7064473"
     inkscape:cy="4.9866212"
     inkscape:window-width="1366"
     inkscape:window-height="736"
     inkscape:window-x="0"
     inkscape:window-y="0"
     inkscape:window-maximized="1"
     inkscape:current-layer="surface1" />
  <g
     id="surface1">
    <path
       style=" stroke:none;fill-rule:nonzero;fill:#ffffff;fill-opacity:0.0588235;"
       d="M 5.390625 9.375 L 6.355469 9.375 L 6.355469 14.703125 L 5.390625 14.703125 Z M 5.390625 9.375 "
       id="path2" />
    <path
       style=" stroke:none;fill-rule:nonzero;fill:#ffffff;fill-opacity:0.0588235;"
       d="M 8.882812 9.375 L 9.847656 9.375 L 9.847656 13.347656 L 8.882812 13.347656 Z M 8.882812 9.375 "
       id="path4" />
    <path
       style=" stroke:none;fill-rule:nonzero;fill:#ffffff;fill-opacity:0.0588235;"
       d="M 2.859375 8.484375 L 9.367188 8.484375 L 9.367188 9.226562 L 2.859375 9.226562 Z M 2.859375 8.484375 "
       id="path6" />
    <path
       style=" stroke:none;fill-rule:nonzero;fill:rgb(100%,0%,0%);fill-opacity:0.733333;"
       d="M 3.691406 8.332031 L 3.792969 6.980469 L 3.789062 5.597656 L 3.789062 4.25 L 3.929688 3.085938 L 4.425781 2.03125 L 5.308594 1.109375 L 6.09375 0.636719 L 6.558594 0.367188 L 7.246094 0.347656 L 8.164062 0.363281 L 8.882812 0.621094 L 9.648438 1.253906 L 10.394531 2.089844 L 10.824219 3.019531 L 11.054688 4.136719 L 10.972656 6.164062 L 11.015625 8.398438 L 11.097656 8.378906 "
       id="path8" />
    <path
       style="fill-rule:nonzero;fill:#ffffff;fill-opacity:0.0588235;stroke-width:2;stroke-linecap:round;stroke-linejoin:round;stroke:#d32323;stroke-opacity:1;stroke-miterlimit:10"
       d="M 34.53615 7.033679 C 26.399367 7.033679 19.786203 14.538322 19.786203 23.7773 L 19.786203 40.164329 L 49.286097 40.164329 "
       transform="matrix(0.240997,0,0,0.240997,-1.077002,-1.347437)"
       id="path10" />
    <path
       style="fill-rule:nonzero;fill:#ffffff;fill-opacity:0.0588235;stroke-width:2;stroke-linecap:round;stroke-linejoin:round;stroke:#ffffff;stroke-opacity:1;stroke-miterlimit:10;"
       d="M 26.837002 44.492061 L 30.840559 44.492061 L 30.840559 66.600772 L 26.837002 66.600772 Z M 26.837002 44.492061 "
       transform="matrix(0.240997,0,0,0.240997,-1.077002,-1.347437)"
       id="path12" />
    <path
       style="fill-rule:nonzero;fill:#ffffff;fill-opacity:0.0588235;stroke-width:2;stroke-linecap:round;stroke-linejoin:round;stroke:#ffffff;stroke-opacity:1;stroke-miterlimit:10;"
       d="M 41.32761 44.492061 L 45.331167 44.492061 L 45.331167 60.976342 L 41.32761 60.976342 Z M 41.32761 44.492061 "
       transform="matrix(0.240997,0,0,0.240997,-1.077002,-1.347437)"
       id="path14" />
    <path
       style="fill-rule:nonzero;fill:#ffffff;fill-opacity:0.0588235;stroke-width:2;stroke-linecap:round;stroke-linejoin:round;stroke:#d32323;stroke-opacity:1;stroke-miterlimit:10"
       d="M 35.249335 7.033679 C 43.402327 7.033679 49.999282 14.538322 49.999282 23.7773 L 49.999282 31.168482 "
       transform="matrix(0.240997,0,0,0.240997,-1.077002,-1.347437)"
       id="path16" />
    <path
       style="fill-rule:nonzero;fill:#ffffff;fill-opacity:0.0588235;stroke-width:2;stroke-linecap:round;stroke-linejoin:round;stroke:#ffffff;stroke-opacity:1;stroke-miterlimit:10;"
       d="M 38.37762 13.954808 C 42.332551 13.954808 46.481987 15.802603 46.627865 27.683604 L 46.708909 35.220665 "
       transform="matrix(0.240997,0,0,0.240997,-1.077002,-1.347437)"
       id="path18" />
    <path
       style="fill-rule:nonzero;fill:#ffffff;fill-opacity:0.0588235;stroke-width:1.99998;stroke-linecap:round;stroke-linejoin:round;stroke:#ffffff;stroke-opacity:1;stroke-miterlimit:10;"
       d="M 45.898472 44.492061 L 55.996513 44.492061 L 55.996513 40.164329 L 15.99336 40.164329 L 15.99336 44.492061 Z M 45.898472 44.492061 "
       transform="matrix(0.240997,0,0,0.240997,-1.077002,-1.347437)"
       id="path20" />
  </g>
</svg>
