<?xml version="1.0" encoding="UTF-8" standalone="yes"?>
<svg xmlns="http://www.w3.org/2000/svg" xmlns:xlink="http://www.w3.org/1999/xlink" width="15.75" height="15.75" viewBox="0 0 15.75 15.75" version="1.1">
  <g id="surface1">
    <path style="fill:none;stroke-width:11.561234;stroke-linecap:butt;stroke-linejoin:round;stroke:#ffffff;stroke-opacity:1;stroke-miterlimit:4;" d="M 0 12.51317 L 37.5 12.51317 C 37.5 12.51317 56.324405 12.51317 56.324405 28.116765 C 56.324405 43.754503 37.611607 43.754503 37.611607 43.754503 C 37.611607 43.754503 56.361607 43.754503 56.361607 59.39224 C 56.361607 74.995835 37.611607 74.995835 37.611607 74.995835 C 37.611607 74.995835 56.361607 74.995835 56.361607 90.633573 C 56.361607 106.271311 37.611607 106.237167 37.611607 106.237167 C 37.611607 106.237167 56.361607 106.237167 56.361607 121.874905 C 56.361607 137.512643 37.611607 137.512643 37.611607 137.512643 L 0 137.512643 M 68.75 6.264904 L 68.75 143.76091 M 81.25 143.76091 L 81.25 6.264904 " transform="matrix(0.105,0,0,0.114407,0,-0.69331)"/>
    <path style="fill:none;stroke-width:11.561234;stroke-linecap:butt;stroke-linejoin:round;stroke:#ffffff;stroke-opacity:1;stroke-miterlimit:4;" d="M 150.111607 137.512643 L 112.611607 137.512643 C 112.611607 137.512643 93.824405 137.512643 93.824405 121.874905 C 93.824405 106.271311 112.5 106.237167 112.5 106.237167 C 112.5 106.237167 93.75 106.237167 93.75 90.633573 C 93.75 74.995835 112.5 74.995835 112.5 74.995835 C 112.5 74.995835 93.75 74.995835 93.75 59.39224 C 93.75 43.754503 112.5 43.754503 112.5 43.754503 C 112.5 43.754503 93.75 43.754503 93.75 28.116765 C 93.75 12.51317 112.5 12.51317 112.5 12.51317 L 150.111607 12.51317 " transform="matrix(0.105,0,0,0.114407,0,-0.69331)"/>
  </g>
</svg>